<svg xmlns="http://www.w3.org/2000/svg" xmlns:xlink="http://www.w3.org/1999/xlink" viewBox="0,0,256,256" width="50px" height="50px"><g fill="#463f6a" fill-rule="nonzero" stroke="none" stroke-width="1" stroke-linecap="butt" stroke-linejoin="miter" stroke-miterlimit="10" stroke-dasharray="" stroke-dashoffset="0" font-family="none" font-weight="none" font-size="none" text-anchor="none" style="mix-blend-mode: normal"><g transform="scale(5.12,5.12)"><path d="M42.98047,3c-0.04714,0.00124 -0.09413,0.00581 -0.14062,0.01367l-37,6c-0.27605,0.04474 -0.52076,0.20302 -0.67477,0.43645c-0.15401,0.23343 -0.20325,0.52067 -0.13578,0.79207l2.68945,10.75781h-4.71875c-0.31787,-0.00001 -0.61682,0.1511 -0.80531,0.40705c-0.1885,0.25595 -0.24409,0.58627 -0.14976,0.88983l6.43945,20.73438c0.14833,0.47628 0.62496,0.77042 1.11719,0.68945l15.39844,-2.54297v4.82227c-0.00012,0.3352 0.1677,0.64817 0.44697,0.83356c0.27927,0.18539 0.63284,0.21855 0.9417,0.08831l19,-8c0.32901,-0.13883 0.55904,-0.44255 0.60352,-0.79687l2,-16c0.03584,-0.28475 -0.05237,-0.57117 -0.24221,-0.78642c-0.18983,-0.21524 -0.46299,-0.33856 -0.74998,-0.33858h-4.88281l1.87695,-16.88867c0.0321,-0.2863 -0.06083,-0.57254 -0.25498,-0.78539c-0.19415,-0.21285 -0.47066,-0.33164 -0.75869,-0.32594zM41.86133,5.19727l-1.85547,16.69141c-0.03166,0.28289 0.05873,0.56586 0.24851,0.77801c0.18978,0.21215 0.46098,0.33338 0.74563,0.33331h4.86719l-1.78711,14.30273l-17.08008,7.19141v-4.49414c-0.00017,-0.29346 -0.12921,-0.57203 -0.35294,-0.76193c-0.22374,-0.18989 -0.51958,-0.27194 -0.80916,-0.2244l-15.70312,2.5918l-5.77734,-18.60547h4.64258c0.30794,0.00011 0.59876,-0.14166 0.78837,-0.3843c0.18961,-0.24264 0.25687,-0.55911 0.18233,-0.85789l-2.73633,-10.94531zM34.60352,15.18359c-0.075,0 -0.13984,-0.00119 -0.21484,0.00781l-4.53516,0.37695v8.32813h5.25195c2.244,-1.004 2.21798,-2.82189 1.33398,-3.71289c-0.345,-0.347 -0.82956,-0.56445 -1.35156,-0.56445c0.513,-0.019 0.98822,-0.24498 1.32422,-0.58398c0.363,-0.366 0.58789,-0.87273 0.58789,-1.42773c0,-1.344 -1.08148,-2.42383 -2.39648,-2.42383zM28.98633,15.57227l-5.66211,0.4082v7.64063l5.66406,0.27148v-2.04297l-3.60156,-0.05469v-0.94141h3.18359v-2.20703l-3.12891,0.10938v-0.90625l3.54492,-0.19727zM22.7793,16.01953l-2.09375,0.15039l-1.16016,4.48438l-1.08789,-4.32617l-1.92969,0.13867l-1.01758,4.15039l-0.99219,-4.00781l-2.00977,0.17383l1.70117,6.62109h2.22461l1.01367,-3.52734l1.03125,3.52734h2.26172zM33.56641,17.24023h0.03711c0.364,0 0.66211,0.30197 0.66211,0.66797c0,0.376 -0.29888,0.67773 -0.67187,0.67773h-1.51172v-1.2793h0.00195zM33.81055,20.73633h0.01758c0.354,0 0.6543,0.2912 0.6543,0.6582c-0.001,0.358 -0.2903,0.65039 -0.6543,0.65039h-1.74414v-1.24219zM9.54297,25.07813v2.23242h2.60547v6.68945l2.47851,-0.13672v-6.41211h2.31445v-2.23047zM21.39453,25.16406c-2.369,0 -4.29492,1.90858 -4.29492,4.26758c0,2.35 1.92692,4.26758 4.29492,4.26758c2.368,0 4.28711,-1.91758 4.28711,-4.26758c0,-2.359 -1.91811,-4.26758 -4.28711,-4.26758zM30.11719,25.38086c-2.077,0 -3.75977,1.73839 -3.75977,3.90039c0,2.152 1.68176,3.90234 3.75977,3.90234c2.068,0 3.75,-1.74934 3.75,-3.90234c0,-2.162 -1.682,-3.90039 -3.75,-3.90039zM34.51367,25.58008v7.12109l2.23047,-0.06445v-3.49609l2.26563,3.36914l1.82617,-0.10937l0.16406,-6.72656h-2.15039v3.4668l-2.29102,-3.55078zM21.50781,27.41992c1.015,0 1.83398,0.92202 1.83398,2.04102c0,1.128 -0.81899,2.04883 -1.83398,2.04883c-1.015,0 -1.83203,-0.92083 -1.83203,-2.04883c0,-1.118 0.81703,-2.04102 1.83203,-2.04102zM30.16406,27.47656c0.902,0 1.63672,0.82656 1.63672,1.85156c0,1.015 -0.73472,1.84375 -1.63672,1.84375c-0.902,0 -1.63477,-0.82875 -1.63477,-1.84375c0,-1.024 0.73277,-1.85156 1.63477,-1.85156z"></path></g></g></svg>